<svg width="94" height="23" xmlns="http://www.w3.org/2000/svg"><g transform="translate(0 .024)" fill="none" fill-rule="evenodd"><path d="M23.184.615v21.722h-3.459V.615h3.46zm6.091 6.987v8.203c0 1.215.452 3.19 2.482 3.19.732 0 3.39-.288 3.529-3.318l.005-.252h-.075V7.602h3.46v14.735h-3.46v-1.215c-.752.911-2.331 1.215-3.534 1.215-1.655 0-3.159-.532-4.136-1.519-.994-1.148-1.653-2.702-1.723-4.599l-.007-.338V7.602h3.46zm16.243-5.24v5.24h2.557v3.494h-2.557v11.241h-3.459v-11.24h-2.557V7.601h2.557v-5.24h3.459zM66.949.615V8.59c.903-.912 2.18-1.215 3.384-1.215 1.58 0 2.782.531 3.76 1.519 1.069 1.079 1.53 2.704 1.511 4.486l-.007.298v8.659h-3.46v-8.583c0-1.215 0-3.19-2.03-3.19-.732 0-3.032.288-3.153 3.318l-.005.252v8.203H63.49V.615h3.46zM55.87 7.298h.25c1.77 0 3.406.673 4.784 1.766l.255.21.526.53-2.256 2.28-.526-.456c-.752-.76-1.73-1.064-2.782-1.064-2.406 0-4.136 1.671-4.136 4.178 0 2.506 1.73 4.253 4.136 4.253.972 0 1.88-.323 2.605-.91l.177-.153.526-.608 2.407 2.43-.527.532c-1.428 1.291-3.233 1.975-5.188 1.975-4.211 0-7.445-3.266-7.445-7.52 0-4.232 2.916-7.272 6.946-7.437l.248-.006zM9.95 1.222c2.707 0 5.264 1.064 7.219 3.038l.526.532-2.256 2.279-.526-.532c-1.429-1.291-3.158-2.05-4.963-2.05-3.835 0-6.618 3.037-6.618 7.215 0 4.177 2.783 7.215 6.693 7.215 1.805 0 3.685-.76 4.963-2.05l.451-.608 2.256 2.43-.526.532c-1.805 1.975-4.437 3.038-7.22 3.038-5.714 0-9.925-4.481-9.925-10.481S4.234 1.298 9.95 1.222zM80.337 21.313c0 .568-.447 1.024-1.102 1.024-.666 0-1.113-.456-1.113-1.024 0-.59.447-1.046 1.113-1.046.655 0 1.102.456 1.102 1.046zm.731-2.17c0-1.96 1.266-3.195 3.056-3.195 1.528 0 2.608.857 2.924 2.338h-1.986c-.153-.435-.458-.713-.971-.713-.666 0-1.124.534-1.124 1.57 0 1.035.458 1.569 1.124 1.569.513 0 .808-.256.971-.712h1.986c-.316 1.435-1.396 2.337-2.924 2.337-1.79 0-3.056-1.224-3.056-3.194zm12.932 0c0 1.97-1.397 3.194-3.187 3.194-1.79 0-3.143-1.224-3.143-3.194s1.386-3.195 3.165-3.195c1.79 0 3.165 1.224 3.165 3.195zm-4.43 0c0 1.046.567 1.547 1.243 1.547.666 0 1.288-.501 1.288-1.547 0-1.058-.611-1.548-1.266-1.548-.676 0-1.266.49-1.266 1.548z" fill="#17313B"/><ellipse fill="#FF3D2E" cx="55.942" cy="14.824" rx="2.48" ry="2.502"/></g></svg>