<svg viewBox="0 0 304 94" xmlns="http://www.w3.org/2000/svg"><defs><linearGradient x1="22.705%" y1="-.25%" x2="104.465%" y2="99.117%" id="a"><stop stop-color="#7CAAE7" offset="0%"/><stop stop-color="#7498DB" offset="8%"/><stop stop-color="#626DBD" offset="28%"/><stop stop-color="#544BA6" offset="49%"/><stop stop-color="#493395" offset="68%"/><stop stop-color="#43248B" offset="85%"/><stop stop-color="#411F88" offset="100%"/></linearGradient></defs><g fill-rule="nonzero" fill="none"><path d="M112 37.7c-1.3 0-2.3 1-2.3 2.3v8.3c0 3.8-2.2 6.7-6 6.8-3.1 0-5.1-2-5.1-5.3V40c0-1.3-1-2.3-2.3-2.3-1.3 0-2.3 1-2.3 2.3v11.2c0 5.2 3 8.4 8 8.4 3.5 0 6.3-1.4 7.7-4.4v2.1c0 1.3 1 2.3 2.3 2.3 1.3 0 2.3-1 2.3-2.3V40c.1-1.3-1-2.3-2.3-2.3zm19-.2c-3.4 0-6 1.4-7.6 3.9v-9.8c0-1.2-.9-2.3-2.1-2.5-1.4-.1-2.6 1-2.6 2.3v25.8c0 1.3 1 2.3 2.3 2.3 1.3 0 2.3-1 2.3-2.3v-1.6c1.6 2.5 4.2 3.9 7.7 3.9 6.2 0 10.3-4.4 10.3-10.9 0-6.6-4.2-11.1-10.3-11.1zm-1 18c-3.9 0-6.6-2.9-6.6-7.1 0-4.1 2.7-7 6.6-7 3.9 0 6.6 3 6.6 7 0 4.2-2.7 7.1-6.6 7.1zm16.9-17.8c1.2 0 2.2 1 2.2 2.2V48c0 3.9 2.6 6.7 6.3 6.7 3.7 0 6.2-2.8 6.2-6.7v-8.1c0-1.2 1-2.2 2.2-2.2h.2c1.2 0 2.2 1 2.2 2.2v17.4c0 6.2-4.4 10.2-11.3 10.2-2.6 0-5-.6-7.2-1.8-1-.5-1.4-1.8-.8-2.7.5-.9 1.7-1.2 2.6-.7 1.6.9 3.3 1.4 5.3 1.4 4.1 0 6.8-2.4 6.8-6.2v-2.7c-1.5 2.4-3.9 3.7-7.2 3.7-5.9 0-9.8-4.2-9.8-10.5v-8c.1-1.4 1-2.3 2.3-2.3zM93.7 63.6L85 49.8c3.5-1.6 5.5-4.7 5.5-9.1 0-6.2-4.2-9.7-11.5-9.7h-9.2c-1.3 0-2.4 1.1-2.4 2.4v23.7c0 1.3 1.1 2.4 2.4 2.4 1.3 0 2.4-1.1 2.4-2.4v-6.2H80l9.6 15.2c.7 1.2 2.2 1.5 3.3.8 1.1-.7 1.4-2.2.8-3.3zM72.2 46.7V35.4H79c4.4 0 6.9 1.7 6.9 5.5 0 3.3-1.8 5.2-5.2 5.7-.5.1-1.7.1-1.7.1h-6.8zm159.7-8.6c1.5-.5 2.7.5 2.7 2 0 1-.8 2-1.8 2.1-3.3.5-5.3 2.8-5.6 5.9v9.1c0 1.3-1 2.3-2.3 2.3-1.3 0-2.3-1-2.3-2.3v-17c0-1.3 1-2.3 2.3-2.3 1.3 0 2.3 1 2.3 2.3v2c1-2.1 2.6-3.5 4.7-4.1zm44.8-.4c-1.3 0-2.3 1-2.3 2.3v1.3c-1.5-2.3-4-3.7-7.3-3.6-5.7 0-9.5 4.2-9.5 10.2 0 6.2 3.9 10.4 9.7 10.4 3.2 0 5.7-1.3 7.1-3.6v2.7c0 3.7-2.7 6.1-6.7 6.1-2 0-3.6-.5-5.2-1.3-.9-.5-2-.2-2.5.6l-.1.1c-.5.9-.2 2.1.7 2.6 2.2 1.2 4.6 1.8 7.3 1.8 6.7 0 11.1-3.9 11.1-10.1V40c0-1.3-1-2.3-2.3-2.3zm-8.5 17c-3.7 0-6.2-2.7-6.3-6.6 0-3.8 2.6-6.6 6.3-6.6 3.6 0 6.2 2.7 6.2 6.6 0 3.8-2.5 6.6-6.2 6.6zm25.1-17c-6.4 0-10.9 4.4-10.9 10.9s4.4 10.9 11 10.9c2.9 0 5.4-.8 7.4-2.3.9-.7 1-1.9.2-2.7-.6-.6-1.7-.7-2.4-.2-1.4 1-3 1.5-4.8 1.5-3.4 0-5.9-2.1-6.7-5.4h14.4c1.1 0 1.9-.9 1.8-1.9-.2-6.6-3.4-10.8-10-10.8zm-6.2 9.3c.5-3.4 2.9-5.6 6.3-5.6 3.5 0 5.8 2.1 6 5.6h-12.3zm-77-9.3c-3.3 0-5.3.6-7.6 1.8-.9.5-1.3 1.7-.7 2.6.5.9 1.6 1.1 2.5.7 1.6-.8 3.2-1.3 4.8-1.3 3.4 0 5.1 1.6 5.1 4.3v.6h-6.5c-5.2 0-8.1 2.5-8.1 6.5 0 3.8 2.9 6.7 7.6 6.7 3 0 5.4-.9 7-2.7v.4c0 1.3 1 2.3 2.3 2.3 1.3 0 2.3-1 2.3-2.3v-12c-.1-4.8-3.2-7.6-8.7-7.6zm4.1 14.1c-.2 2.3-2.8 4.1-6.1 4.1-2.6 0-4.2-1.3-4.2-3.2 0-2.1 1.4-2.9 4.4-2.9h5.8v2h.1zm31.9-14.1c-3.3 0-5.3.6-7.6 1.8-.9.5-1.3 1.7-.7 2.6.5.9 1.6 1.1 2.5.7 1.6-.8 3.2-1.3 4.8-1.3 3.4 0 5.1 1.6 5.1 4.3v.6h-6.5c-5.2 0-8.1 2.5-8.1 6.5 0 3.8 2.9 6.7 7.6 6.7 3 0 5.4-.9 7-2.7v.4c0 1.3 1 2.3 2.3 2.3 1.3 0 2.3-1 2.3-2.3v-12c-.1-4.8-3.2-7.6-8.7-7.6zm4 14.1c-.2 2.3-2.7 4.1-6 4.1-2.6 0-4.2-1.3-4.2-3.2 0-2.1 1.4-2.9 4.4-2.9h5.8v2zm-56.4-7.6c1.2 0 2.1.9 2.3 2V54.6c0 .9-.4 1.7-1.1 2.1-2.8 1.7-6.5 2.9-9.9 2.9-8.4 0-14.9-6.2-14.9-14.3 0-8.1 6.5-14.3 15.1-14.3 3.2 0 6.3.9 8.9 2.5 1.2.7 1.4 2.1.6 3.2-.7.8-2 1.1-2.9.5-2-1.3-4.3-2-6.6-2-5.8 0-10.3 4.4-10.3 10 0 5.7 4.5 10.1 10.3 10.1 2.1 0 4.5-.7 6.5-1.9v-5h-3c-1.2 0-2.1-1-2.1-2.1 0-1.2 1-2.1 2.1-2.1h5z" fill="#000"/><path d="M27.2 67.3c7.3-.2 13.4 5.6 13.6 12.9.2 7.3-5.6 13.4-12.9 13.6h-.7c-7.3.2-13.4-5.6-13.6-12.9-.2-7.3 5.6-13.4 12.9-13.6h.7zm0-55.5C42 11.8 53.9 23.5 53.9 38S42 64.2 27.2 64.2C12.4 64.2.5 52.4.5 38c0-14.4 11.9-26.2 26.7-26.2zm0 9.8c-9 0-16.4 7.3-16.4 16.4 0 9.1 7.3 16.4 16.4 16.4 9 0 16.4-7.3 16.4-16.4 0-9.1-7.4-16.4-16.4-16.4zM46.7.7C43 .6 40 3.6 40 7.2a6.7 6.7 0 0013.4 0C53.3 3.6 50.3.6 46.7.7z" fill="url(#a)"/></g></svg>